<?xml version="1.0" standalone="no"?><!DOCTYPE svg PUBLIC "-//W3C//DTD SVG 1.1//EN" "http://www.w3.org/Graphics/SVG/1.1/DTD/svg11.dtd"><svg t="1674727799938" class="icon" viewBox="0 0 1024 1024" version="1.1" xmlns="http://www.w3.org/2000/svg" p-id="17942" xmlns:xlink="http://www.w3.org/1999/xlink" width="64" height="64"><path d="M512 0a58.514286 58.514286 0 0 1 58.514286 58.514286v73.142857a58.514286 58.514286 0 1 1-117.028572 0V58.514286a58.514286 58.514286 0 0 1 58.514286-58.514286z m0 833.828571a58.514286 58.514286 0 0 1 58.514286 58.514286v73.142857a58.514286 58.514286 0 1 1-117.028572 0v-73.142857a58.514286 58.514286 0 0 1 58.514286-58.514286z m512-321.828571a58.514286 58.514286 0 0 1-58.514286 58.514286h-73.142857a58.514286 58.514286 0 1 1 0-117.028572h73.142857a58.514286 58.514286 0 0 1 58.514286 58.514286z m-833.828571 0a58.514286 58.514286 0 0 1-58.514286 58.514286H58.514286a58.514286 58.514286 0 1 1 0-117.028572h73.142857a58.514286 58.514286 0 0 1 58.514286 58.514286z m683.871085-362.042514a58.514286 58.514286 0 0 1 0 82.753828l-51.726628 51.726629a58.514286 58.514286 0 1 1-82.753829-82.753829l51.726629-51.726628a58.514286 58.514286 0 0 1 82.753828 0zM284.437943 739.562057a58.514286 58.514286 0 0 1 0 82.753829l-51.726629 51.726628a58.514286 58.514286 0 1 1-82.753828-82.753828l51.726628-51.726629a58.514286 58.514286 0 0 1 82.753829 0z m589.604571 134.480457a58.514286 58.514286 0 0 1-82.753828 0l-51.726629-51.726628a58.514286 58.514286 0 0 1 82.753829-82.753829l51.726628 51.726629a58.514286 58.514286 0 0 1 0 82.753828zM284.437943 284.437943a58.514286 58.514286 0 0 1-82.753829 0l-51.726628-51.726629a58.514286 58.514286 0 1 1 82.753828-82.753828l51.726629 51.726628a58.514286 58.514286 0 0 1 0 82.753829zM512 731.428571c-121.183086 0-219.428571-98.245486-219.428571-219.428571 0-121.183086 98.245486-219.428571 219.428571-219.428571 121.183086 0 219.428571 98.245486 219.428571 219.428571 0 121.183086-98.245486 219.428571-219.428571 219.428571z" fill="#F7B500" p-id="17943"></path></svg>