<?xml version="1.0" standalone="no"?><!DOCTYPE svg PUBLIC "-//W3C//DTD SVG 1.1//EN" "http://www.w3.org/Graphics/SVG/1.1/DTD/svg11.dtd"><svg t="1536501469820" class="icon" style="" viewBox="0 0 1024 1024" version="1.1" xmlns="http://www.w3.org/2000/svg" p-id="3127" xmlns:xlink="http://www.w3.org/1999/xlink" width="32" height="32"><defs><style type="text/css"></style></defs><path d="M853.333333 85.333333 853.333333 170.666667 768 170.666667 768 358.826667 614.826667 512 768 665.173333 768 853.333333 853.333333 853.333333 853.333333 938.666667 170.666667 938.666667 170.666667 853.333333 256 853.333333 256 665.173333 409.173333 512 256 358.826667 256 170.666667 170.666667 170.666667 170.666667 85.333333 853.333333 85.333333M682.666667 700.16 554.666667 572.16 554.666667 451.84 682.666667 323.84 682.666667 170.666667 341.333333 170.666667 341.333333 323.84 469.333333 451.84 469.333333 572.16 341.333333 700.16 341.333333 725.333333 426.666667 725.333333 512 640 597.333333 725.333333 682.666667 725.333333 682.666667 700.16M512 384 426.666667 298.666667 597.333333 298.666667 512 384Z" p-id="3128"></path></svg>